<?xml version="1.0" encoding="utf-8"?>
<!-- Generator: Adobe Illustrator 22.1.0, SVG Export Plug-In . SVG Version: 6.00 Build 0)  -->
<svg version="1.1" id="Layer_1" xmlns="http://www.w3.org/2000/svg" xmlns:xlink="http://www.w3.org/1999/xlink" x="0px" y="0px"
	 viewBox="0 0 60.5 60.5" style="enable-background:new 0 0 60.5 60.5;" xml:space="preserve">
<style type="text/css">
	.st0{fill:none;stroke:#000000;stroke-width:1.5;stroke-linecap:round;stroke-miterlimit:10;}
	.st1{display:none;fill:#C256A0;}
</style>
<g>
	<g>
		<path d="M59.2,55.2L44.1,40.1c3.4-4.2,5.5-9.6,5.5-15.5C49.6,11,38.6,0,25.1,0C11.5,0,0.5,11,0.5,24.6c0,13.6,11,24.6,24.6,24.6
			c5.4,0,10.4-1.8,14.5-4.7l15.2,15.2c0.6,0.6,1.4,0.9,2.2,0.9c0.8,0,1.6-0.3,2.2-0.9C60.5,58.4,60.5,56.4,59.2,55.2z M25.1,42.8
			C15,42.8,6.8,34.6,6.8,24.6C6.8,14.5,15,6.3,25.1,6.3c10.1,0,18.3,8.2,18.3,18.3C43.4,34.6,35.2,42.8,25.1,42.8z"/>
	</g>
</g>
</svg>
