<?xml version="1.0" encoding="utf-8"?>
<!-- Generator: Adobe Illustrator 22.1.0, SVG Export Plug-In . SVG Version: 6.00 Build 0)  -->
<svg version="1.1" id="Layer_1" xmlns="http://www.w3.org/2000/svg" xmlns:xlink="http://www.w3.org/1999/xlink" x="0px" y="0px"
	 viewBox="0 0 60.5 60.5" style="enable-background:new 0 0 60.5 60.5;" xml:space="preserve">
<style type="text/css">
	.st0{fill:none;stroke:#000000;stroke-width:1.5;stroke-linecap:round;stroke-miterlimit:10;}
	.st1{display:none;fill:#C256A0;}
</style>
<g>
	<path d="M56.5,14.4H4.2c-2.3,0-4.2-1.9-4.2-4.2L0,10c0-2.3,1.9-4.2,4.2-4.2h52.2c2.3,0,4.2,1.9,4.2,4.2v0.2
		C60.7,12.5,58.8,14.4,56.5,14.4z"/>
	<path d="M56.5,54.9H4.2C1.9,54.9,0,53,0,50.7l0-0.2c0-2.3,1.9-4.2,4.2-4.2h52.2c2.3,0,4.2,1.9,4.2,4.2v0.2
		C60.7,53,58.8,54.9,56.5,54.9z"/>
	<path d="M56.5,34.7H4.2c-2.3,0-4.2-1.9-4.2-4.2l0-0.2C0,27.9,1.9,26,4.2,26h52.2c2.3,0,4.2,1.9,4.2,4.2v0.2
		C60.7,32.8,58.8,34.7,56.5,34.7z"/>
</g>
<rect class="st1" width="60.5" height="60.5"/>
</svg>
